<svg xmlns="http://www.w3.org/2000/svg" width="178.999" height="213.5" viewBox="0 0 178.999 213.5"><g transform="translate(-118 -261)"><g transform="translate(0.5 22.5)"><path d="M-45,107.5a88.941,88.941,0,0,1-34.838-7.033,89.507,89.507,0,0,1-15.2-8.252,90.143,90.143,0,0,1-13.246-10.929A90.143,90.143,0,0,1-119.215,68.04a89.507,89.507,0,0,1-8.252-15.2A88.94,88.94,0,0,1-134.5,18a88.94,88.94,0,0,1,7.033-34.838,89.507,89.507,0,0,1,8.252-15.2,90.143,90.143,0,0,1,10.929-13.246A90.143,90.143,0,0,1-95.04-56.215a89.508,89.508,0,0,1,15.2-8.252A88.941,88.941,0,0,1-45-71.5a88.94,88.94,0,0,1,34.838,7.033,89.507,89.507,0,0,1,15.2,8.252A90.143,90.143,0,0,1,18.286-45.286,90.142,90.142,0,0,1,29.215-32.04a89.507,89.507,0,0,1,8.252,15.2A88.941,88.941,0,0,1,44.5,18a88.941,88.941,0,0,1-7.033,34.838,89.507,89.507,0,0,1-8.252,15.2A90.143,90.143,0,0,1,18.286,81.286,90.143,90.143,0,0,1,5.04,92.215a89.507,89.507,0,0,1-15.2,8.252A88.94,88.94,0,0,1-45,107.5ZM-5.852,17.722v51.7H4.587V-7.433l-.023.025v-.043L-45.86,42.968-77.918,10.911-77.992,25.6-45.86,57.731-5.854,17.724ZM-95-38.256h0V69.119h10.439V-13.1l40.009,40.006L4.588-22.229V-36.992l-49.14,49.14L-94.976-38.277v.045Z" transform="translate(252 310)" fill="#fff"/></g><text transform="translate(207 469.5)" fill="#fff" font-size="18" font-family="SegoeUI, Segoe UI"><tspan x="-67.263" y="0">Merchant Nation</tspan></text></g></svg>